<?xml version="1.0" encoding="utf-8" standalone="no"?>
<!DOCTYPE svg PUBLIC "-//W3C//DTD SVG 1.1//EN"
  "http://www.w3.org/Graphics/SVG/1.1/DTD/svg11.dtd">
<!-- Created with matplotlib (https://matplotlib.org/) -->
<svg height="586.901275pt" version="1.1" viewBox="0 0 576.274854 586.901275" width="576.274854pt" xmlns="http://www.w3.org/2000/svg" xmlns:xlink="http://www.w3.org/1999/xlink">
 <defs>
  <style type="text/css">
*{stroke-linecap:butt;stroke-linejoin:round;}
  </style>
 </defs>
 <g id="figure_1">
  <g id="patch_1">
   <path d="M 0 586.901275 
L 576.274854 586.901275 
L 576.274854 0 
L 0 0 
z
" style="fill:#ffffff;"/>
  </g>
  <g id="axes_1">
   <g id="patch_2">
    <path d="M 67.379375 502.736859 
L 569.074854 502.736859 
L 569.074854 25.965375 
L 67.379375 25.965375 
z
" style="fill:#ffffff;"/>
   </g>
   <g id="matplotlib.axis_1">
    <g id="xtick_1">
     <g id="line2d_1">
      <defs>
       <path d="M 0 0 
L 0 3.5 
" id="m8d74bd01a9" style="stroke:#000000;stroke-width:0.8;"/>
      </defs>
      <g>
       <use style="stroke:#000000;stroke-width:0.8;" x="90.183715" xlink:href="#m8d74bd01a9" y="502.736859"/>
      </g>
     </g>
     <g id="text_1">
      <!-- 2018-10-09 -->
      <defs>
       <path d="M 19.1875 8.296875 
L 53.609375 8.296875 
L 53.609375 0 
L 7.328125 0 
L 7.328125 8.296875 
Q 12.9375 14.109375 22.625 23.890625 
Q 32.328125 33.6875 34.8125 36.53125 
Q 39.546875 41.84375 41.421875 45.53125 
Q 43.3125 49.21875 43.3125 52.78125 
Q 43.3125 58.59375 39.234375 62.25 
Q 35.15625 65.921875 28.609375 65.921875 
Q 23.96875 65.921875 18.8125 64.3125 
Q 13.671875 62.703125 7.8125 59.421875 
L 7.8125 69.390625 
Q 13.765625 71.78125 18.9375 73 
Q 24.125 74.21875 28.421875 74.21875 
Q 39.75 74.21875 46.484375 68.546875 
Q 53.21875 62.890625 53.21875 53.421875 
Q 53.21875 48.921875 51.53125 44.890625 
Q 49.859375 40.875 45.40625 35.40625 
Q 44.1875 33.984375 37.640625 27.21875 
Q 31.109375 20.453125 19.1875 8.296875 
z
" id="DejaVuSans-50"/>
       <path d="M 31.78125 66.40625 
Q 24.171875 66.40625 20.328125 58.90625 
Q 16.5 51.421875 16.5 36.375 
Q 16.5 21.390625 20.328125 13.890625 
Q 24.171875 6.390625 31.78125 6.390625 
Q 39.453125 6.390625 43.28125 13.890625 
Q 47.125 21.390625 47.125 36.375 
Q 47.125 51.421875 43.28125 58.90625 
Q 39.453125 66.40625 31.78125 66.40625 
z
M 31.78125 74.21875 
Q 44.046875 74.21875 50.515625 64.515625 
Q 56.984375 54.828125 56.984375 36.375 
Q 56.984375 17.96875 50.515625 8.265625 
Q 44.046875 -1.421875 31.78125 -1.421875 
Q 19.53125 -1.421875 13.0625 8.265625 
Q 6.59375 17.96875 6.59375 36.375 
Q 6.59375 54.828125 13.0625 64.515625 
Q 19.53125 74.21875 31.78125 74.21875 
z
" id="DejaVuSans-48"/>
       <path d="M 12.40625 8.296875 
L 28.515625 8.296875 
L 28.515625 63.921875 
L 10.984375 60.40625 
L 10.984375 69.390625 
L 28.421875 72.90625 
L 38.28125 72.90625 
L 38.28125 8.296875 
L 54.390625 8.296875 
L 54.390625 0 
L 12.40625 0 
z
" id="DejaVuSans-49"/>
       <path d="M 31.78125 34.625 
Q 24.75 34.625 20.71875 30.859375 
Q 16.703125 27.09375 16.703125 20.515625 
Q 16.703125 13.921875 20.71875 10.15625 
Q 24.75 6.390625 31.78125 6.390625 
Q 38.8125 6.390625 42.859375 10.171875 
Q 46.921875 13.96875 46.921875 20.515625 
Q 46.921875 27.09375 42.890625 30.859375 
Q 38.875 34.625 31.78125 34.625 
z
M 21.921875 38.8125 
Q 15.578125 40.375 12.03125 44.71875 
Q 8.5 49.078125 8.5 55.328125 
Q 8.5 64.0625 14.71875 69.140625 
Q 20.953125 74.21875 31.78125 74.21875 
Q 42.671875 74.21875 48.875 69.140625 
Q 55.078125 64.0625 55.078125 55.328125 
Q 55.078125 49.078125 51.53125 44.71875 
Q 48 40.375 41.703125 38.8125 
Q 48.828125 37.15625 52.796875 32.3125 
Q 56.78125 27.484375 56.78125 20.515625 
Q 56.78125 9.90625 50.3125 4.234375 
Q 43.84375 -1.421875 31.78125 -1.421875 
Q 19.734375 -1.421875 13.25 4.234375 
Q 6.78125 9.90625 6.78125 20.515625 
Q 6.78125 27.484375 10.78125 32.3125 
Q 14.796875 37.15625 21.921875 38.8125 
z
M 18.3125 54.390625 
Q 18.3125 48.734375 21.84375 45.5625 
Q 25.390625 42.390625 31.78125 42.390625 
Q 38.140625 42.390625 41.71875 45.5625 
Q 45.3125 48.734375 45.3125 54.390625 
Q 45.3125 60.0625 41.71875 63.234375 
Q 38.140625 66.40625 31.78125 66.40625 
Q 25.390625 66.40625 21.84375 63.234375 
Q 18.3125 60.0625 18.3125 54.390625 
z
" id="DejaVuSans-56"/>
       <path d="M 4.890625 31.390625 
L 31.203125 31.390625 
L 31.203125 23.390625 
L 4.890625 23.390625 
z
" id="DejaVuSans-45"/>
       <path d="M 10.984375 1.515625 
L 10.984375 10.5 
Q 14.703125 8.734375 18.5 7.8125 
Q 22.3125 6.890625 25.984375 6.890625 
Q 35.75 6.890625 40.890625 13.453125 
Q 46.046875 20.015625 46.78125 33.40625 
Q 43.953125 29.203125 39.59375 26.953125 
Q 35.25 24.703125 29.984375 24.703125 
Q 19.046875 24.703125 12.671875 31.3125 
Q 6.296875 37.9375 6.296875 49.421875 
Q 6.296875 60.640625 12.9375 67.421875 
Q 19.578125 74.21875 30.609375 74.21875 
Q 43.265625 74.21875 49.921875 64.515625 
Q 56.59375 54.828125 56.59375 36.375 
Q 56.59375 19.140625 48.40625 8.859375 
Q 40.234375 -1.421875 26.421875 -1.421875 
Q 22.703125 -1.421875 18.890625 -0.6875 
Q 15.09375 0.046875 10.984375 1.515625 
z
M 30.609375 32.421875 
Q 37.25 32.421875 41.125 36.953125 
Q 45.015625 41.5 45.015625 49.421875 
Q 45.015625 57.28125 41.125 61.84375 
Q 37.25 66.40625 30.609375 66.40625 
Q 23.96875 66.40625 20.09375 61.84375 
Q 16.21875 57.28125 16.21875 49.421875 
Q 16.21875 41.5 20.09375 36.953125 
Q 23.96875 32.421875 30.609375 32.421875 
z
" id="DejaVuSans-57"/>
      </defs>
      <g transform="translate(18.266483 559.630413)rotate(-30)scale(0.14 -0.14)">
       <use xlink:href="#DejaVuSans-50"/>
       <use x="63.623047" xlink:href="#DejaVuSans-48"/>
       <use x="127.246094" xlink:href="#DejaVuSans-49"/>
       <use x="190.869141" xlink:href="#DejaVuSans-56"/>
       <use x="254.492188" xlink:href="#DejaVuSans-45"/>
       <use x="290.576172" xlink:href="#DejaVuSans-49"/>
       <use x="354.199219" xlink:href="#DejaVuSans-48"/>
       <use x="417.822266" xlink:href="#DejaVuSans-45"/>
       <use x="453.90625" xlink:href="#DejaVuSans-48"/>
       <use x="517.529297" xlink:href="#DejaVuSans-57"/>
      </g>
     </g>
    </g>
    <g id="xtick_2">
     <g id="line2d_2">
      <g>
       <use style="stroke:#000000;stroke-width:0.8;" x="181.76741" xlink:href="#m8d74bd01a9" y="502.736859"/>
      </g>
     </g>
     <g id="text_2">
      <!-- 2018-12-20 -->
      <g transform="translate(109.850178 559.630413)rotate(-30)scale(0.14 -0.14)">
       <use xlink:href="#DejaVuSans-50"/>
       <use x="63.623047" xlink:href="#DejaVuSans-48"/>
       <use x="127.246094" xlink:href="#DejaVuSans-49"/>
       <use x="190.869141" xlink:href="#DejaVuSans-56"/>
       <use x="254.492188" xlink:href="#DejaVuSans-45"/>
       <use x="290.576172" xlink:href="#DejaVuSans-49"/>
       <use x="354.199219" xlink:href="#DejaVuSans-50"/>
       <use x="417.822266" xlink:href="#DejaVuSans-45"/>
       <use x="453.90625" xlink:href="#DejaVuSans-50"/>
       <use x="517.529297" xlink:href="#DejaVuSans-48"/>
      </g>
     </g>
    </g>
    <g id="xtick_3">
     <g id="line2d_3">
      <g>
       <use style="stroke:#000000;stroke-width:0.8;" x="273.351104" xlink:href="#m8d74bd01a9" y="502.736859"/>
      </g>
     </g>
     <g id="text_3">
      <!-- 2019-03-06 -->
      <defs>
       <path d="M 40.578125 39.3125 
Q 47.65625 37.796875 51.625 33 
Q 55.609375 28.21875 55.609375 21.1875 
Q 55.609375 10.40625 48.1875 4.484375 
Q 40.765625 -1.421875 27.09375 -1.421875 
Q 22.515625 -1.421875 17.65625 -0.515625 
Q 12.796875 0.390625 7.625 2.203125 
L 7.625 11.71875 
Q 11.71875 9.328125 16.59375 8.109375 
Q 21.484375 6.890625 26.8125 6.890625 
Q 36.078125 6.890625 40.9375 10.546875 
Q 45.796875 14.203125 45.796875 21.1875 
Q 45.796875 27.640625 41.28125 31.265625 
Q 36.765625 34.90625 28.71875 34.90625 
L 20.21875 34.90625 
L 20.21875 43.015625 
L 29.109375 43.015625 
Q 36.375 43.015625 40.234375 45.921875 
Q 44.09375 48.828125 44.09375 54.296875 
Q 44.09375 59.90625 40.109375 62.90625 
Q 36.140625 65.921875 28.71875 65.921875 
Q 24.65625 65.921875 20.015625 65.03125 
Q 15.375 64.15625 9.8125 62.3125 
L 9.8125 71.09375 
Q 15.4375 72.65625 20.34375 73.4375 
Q 25.25 74.21875 29.59375 74.21875 
Q 40.828125 74.21875 47.359375 69.109375 
Q 53.90625 64.015625 53.90625 55.328125 
Q 53.90625 49.265625 50.4375 45.09375 
Q 46.96875 40.921875 40.578125 39.3125 
z
" id="DejaVuSans-51"/>
       <path d="M 33.015625 40.375 
Q 26.375 40.375 22.484375 35.828125 
Q 18.609375 31.296875 18.609375 23.390625 
Q 18.609375 15.53125 22.484375 10.953125 
Q 26.375 6.390625 33.015625 6.390625 
Q 39.65625 6.390625 43.53125 10.953125 
Q 47.40625 15.53125 47.40625 23.390625 
Q 47.40625 31.296875 43.53125 35.828125 
Q 39.65625 40.375 33.015625 40.375 
z
M 52.59375 71.296875 
L 52.59375 62.3125 
Q 48.875 64.0625 45.09375 64.984375 
Q 41.3125 65.921875 37.59375 65.921875 
Q 27.828125 65.921875 22.671875 59.328125 
Q 17.53125 52.734375 16.796875 39.40625 
Q 19.671875 43.65625 24.015625 45.921875 
Q 28.375 48.1875 33.59375 48.1875 
Q 44.578125 48.1875 50.953125 41.515625 
Q 57.328125 34.859375 57.328125 23.390625 
Q 57.328125 12.15625 50.6875 5.359375 
Q 44.046875 -1.421875 33.015625 -1.421875 
Q 20.359375 -1.421875 13.671875 8.265625 
Q 6.984375 17.96875 6.984375 36.375 
Q 6.984375 53.65625 15.1875 63.9375 
Q 23.390625 74.21875 37.203125 74.21875 
Q 40.921875 74.21875 44.703125 73.484375 
Q 48.484375 72.75 52.59375 71.296875 
z
" id="DejaVuSans-54"/>
      </defs>
      <g transform="translate(201.433872 559.630413)rotate(-30)scale(0.14 -0.14)">
       <use xlink:href="#DejaVuSans-50"/>
       <use x="63.623047" xlink:href="#DejaVuSans-48"/>
       <use x="127.246094" xlink:href="#DejaVuSans-49"/>
       <use x="190.869141" xlink:href="#DejaVuSans-57"/>
       <use x="254.492188" xlink:href="#DejaVuSans-45"/>
       <use x="290.576172" xlink:href="#DejaVuSans-48"/>
       <use x="354.199219" xlink:href="#DejaVuSans-51"/>
       <use x="417.822266" xlink:href="#DejaVuSans-45"/>
       <use x="453.90625" xlink:href="#DejaVuSans-48"/>
       <use x="517.529297" xlink:href="#DejaVuSans-54"/>
      </g>
     </g>
    </g>
    <g id="xtick_4">
     <g id="line2d_4">
      <g>
       <use style="stroke:#000000;stroke-width:0.8;" x="364.934799" xlink:href="#m8d74bd01a9" y="502.736859"/>
      </g>
     </g>
     <g id="text_4">
      <!-- 2019-05-16 -->
      <defs>
       <path d="M 10.796875 72.90625 
L 49.515625 72.90625 
L 49.515625 64.59375 
L 19.828125 64.59375 
L 19.828125 46.734375 
Q 21.96875 47.46875 24.109375 47.828125 
Q 26.265625 48.1875 28.421875 48.1875 
Q 40.625 48.1875 47.75 41.5 
Q 54.890625 34.8125 54.890625 23.390625 
Q 54.890625 11.625 47.5625 5.09375 
Q 40.234375 -1.421875 26.90625 -1.421875 
Q 22.3125 -1.421875 17.546875 -0.640625 
Q 12.796875 0.140625 7.71875 1.703125 
L 7.71875 11.625 
Q 12.109375 9.234375 16.796875 8.0625 
Q 21.484375 6.890625 26.703125 6.890625 
Q 35.15625 6.890625 40.078125 11.328125 
Q 45.015625 15.765625 45.015625 23.390625 
Q 45.015625 31 40.078125 35.4375 
Q 35.15625 39.890625 26.703125 39.890625 
Q 22.75 39.890625 18.8125 39.015625 
Q 14.890625 38.140625 10.796875 36.28125 
z
" id="DejaVuSans-53"/>
      </defs>
      <g transform="translate(293.017567 559.630413)rotate(-30)scale(0.14 -0.14)">
       <use xlink:href="#DejaVuSans-50"/>
       <use x="63.623047" xlink:href="#DejaVuSans-48"/>
       <use x="127.246094" xlink:href="#DejaVuSans-49"/>
       <use x="190.869141" xlink:href="#DejaVuSans-57"/>
       <use x="254.492188" xlink:href="#DejaVuSans-45"/>
       <use x="290.576172" xlink:href="#DejaVuSans-48"/>
       <use x="354.199219" xlink:href="#DejaVuSans-53"/>
       <use x="417.822266" xlink:href="#DejaVuSans-45"/>
       <use x="453.90625" xlink:href="#DejaVuSans-49"/>
       <use x="517.529297" xlink:href="#DejaVuSans-54"/>
      </g>
     </g>
    </g>
    <g id="xtick_5">
     <g id="line2d_5">
      <g>
       <use style="stroke:#000000;stroke-width:0.8;" x="456.518494" xlink:href="#m8d74bd01a9" y="502.736859"/>
      </g>
     </g>
     <g id="text_5">
      <!-- 2019-07-29 -->
      <defs>
       <path d="M 8.203125 72.90625 
L 55.078125 72.90625 
L 55.078125 68.703125 
L 28.609375 0 
L 18.3125 0 
L 43.21875 64.59375 
L 8.203125 64.59375 
z
" id="DejaVuSans-55"/>
      </defs>
      <g transform="translate(384.601262 559.630413)rotate(-30)scale(0.14 -0.14)">
       <use xlink:href="#DejaVuSans-50"/>
       <use x="63.623047" xlink:href="#DejaVuSans-48"/>
       <use x="127.246094" xlink:href="#DejaVuSans-49"/>
       <use x="190.869141" xlink:href="#DejaVuSans-57"/>
       <use x="254.492188" xlink:href="#DejaVuSans-45"/>
       <use x="290.576172" xlink:href="#DejaVuSans-48"/>
       <use x="354.199219" xlink:href="#DejaVuSans-55"/>
       <use x="417.822266" xlink:href="#DejaVuSans-45"/>
       <use x="453.90625" xlink:href="#DejaVuSans-50"/>
       <use x="517.529297" xlink:href="#DejaVuSans-57"/>
      </g>
     </g>
    </g>
    <g id="xtick_6">
     <g id="line2d_6">
      <g>
       <use style="stroke:#000000;stroke-width:0.8;" x="548.102188" xlink:href="#m8d74bd01a9" y="502.736859"/>
      </g>
     </g>
     <g id="text_6">
      <!-- 2019-10-08 -->
      <g transform="translate(476.184956 559.630413)rotate(-30)scale(0.14 -0.14)">
       <use xlink:href="#DejaVuSans-50"/>
       <use x="63.623047" xlink:href="#DejaVuSans-48"/>
       <use x="127.246094" xlink:href="#DejaVuSans-49"/>
       <use x="190.869141" xlink:href="#DejaVuSans-57"/>
       <use x="254.492188" xlink:href="#DejaVuSans-45"/>
       <use x="290.576172" xlink:href="#DejaVuSans-49"/>
       <use x="354.199219" xlink:href="#DejaVuSans-48"/>
       <use x="417.822266" xlink:href="#DejaVuSans-45"/>
       <use x="453.90625" xlink:href="#DejaVuSans-48"/>
       <use x="517.529297" xlink:href="#DejaVuSans-56"/>
      </g>
     </g>
    </g>
    <g id="text_7">
     <!-- Date -->
     <defs>
      <path d="M 19.671875 64.796875 
L 19.671875 8.109375 
L 31.59375 8.109375 
Q 46.6875 8.109375 53.6875 14.9375 
Q 60.6875 21.78125 60.6875 36.53125 
Q 60.6875 51.171875 53.6875 57.984375 
Q 46.6875 64.796875 31.59375 64.796875 
z
M 9.8125 72.90625 
L 30.078125 72.90625 
Q 51.265625 72.90625 61.171875 64.09375 
Q 71.09375 55.28125 71.09375 36.53125 
Q 71.09375 17.671875 61.125 8.828125 
Q 51.171875 0 30.078125 0 
L 9.8125 0 
z
" id="DejaVuSans-68"/>
      <path d="M 34.28125 27.484375 
Q 23.390625 27.484375 19.1875 25 
Q 14.984375 22.515625 14.984375 16.5 
Q 14.984375 11.71875 18.140625 8.90625 
Q 21.296875 6.109375 26.703125 6.109375 
Q 34.1875 6.109375 38.703125 11.40625 
Q 43.21875 16.703125 43.21875 25.484375 
L 43.21875 27.484375 
z
M 52.203125 31.203125 
L 52.203125 0 
L 43.21875 0 
L 43.21875 8.296875 
Q 40.140625 3.328125 35.546875 0.953125 
Q 30.953125 -1.421875 24.3125 -1.421875 
Q 15.921875 -1.421875 10.953125 3.296875 
Q 6 8.015625 6 15.921875 
Q 6 25.140625 12.171875 29.828125 
Q 18.359375 34.515625 30.609375 34.515625 
L 43.21875 34.515625 
L 43.21875 35.40625 
Q 43.21875 41.609375 39.140625 45 
Q 35.0625 48.390625 27.6875 48.390625 
Q 23 48.390625 18.546875 47.265625 
Q 14.109375 46.140625 10.015625 43.890625 
L 10.015625 52.203125 
Q 14.9375 54.109375 19.578125 55.046875 
Q 24.21875 56 28.609375 56 
Q 40.484375 56 46.34375 49.84375 
Q 52.203125 43.703125 52.203125 31.203125 
z
" id="DejaVuSans-97"/>
      <path d="M 18.3125 70.21875 
L 18.3125 54.6875 
L 36.8125 54.6875 
L 36.8125 47.703125 
L 18.3125 47.703125 
L 18.3125 18.015625 
Q 18.3125 11.328125 20.140625 9.421875 
Q 21.96875 7.515625 27.59375 7.515625 
L 36.8125 7.515625 
L 36.8125 0 
L 27.59375 0 
Q 17.1875 0 13.234375 3.875 
Q 9.28125 7.765625 9.28125 18.015625 
L 9.28125 47.703125 
L 2.6875 47.703125 
L 2.6875 54.6875 
L 9.28125 54.6875 
L 9.28125 70.21875 
z
" id="DejaVuSans-116"/>
      <path d="M 56.203125 29.59375 
L 56.203125 25.203125 
L 14.890625 25.203125 
Q 15.484375 15.921875 20.484375 11.0625 
Q 25.484375 6.203125 34.421875 6.203125 
Q 39.59375 6.203125 44.453125 7.46875 
Q 49.3125 8.734375 54.109375 11.28125 
L 54.109375 2.78125 
Q 49.265625 0.734375 44.1875 -0.34375 
Q 39.109375 -1.421875 33.890625 -1.421875 
Q 20.796875 -1.421875 13.15625 6.1875 
Q 5.515625 13.8125 5.515625 26.8125 
Q 5.515625 40.234375 12.765625 48.109375 
Q 20.015625 56 32.328125 56 
Q 43.359375 56 49.78125 48.890625 
Q 56.203125 41.796875 56.203125 29.59375 
z
M 47.21875 32.234375 
Q 47.125 39.59375 43.09375 43.984375 
Q 39.0625 48.390625 32.421875 48.390625 
Q 24.90625 48.390625 20.390625 44.140625 
Q 15.875 39.890625 15.1875 32.171875 
z
" id="DejaVuSans-101"/>
     </defs>
     <g transform="translate(301.496021 576.789712)scale(0.14 -0.14)">
      <use xlink:href="#DejaVuSans-68"/>
      <use x="77.001953" xlink:href="#DejaVuSans-97"/>
      <use x="138.28125" xlink:href="#DejaVuSans-116"/>
      <use x="177.490234" xlink:href="#DejaVuSans-101"/>
     </g>
    </g>
   </g>
   <g id="matplotlib.axis_2">
    <g id="ytick_1">
     <g id="line2d_7">
      <defs>
       <path d="M 0 0 
L -3.5 0 
" id="ma0cca102c1" style="stroke:#000000;stroke-width:0.8;"/>
      </defs>
      <g>
       <use style="stroke:#000000;stroke-width:0.8;" x="67.379375" xlink:href="#ma0cca102c1" y="449.654764"/>
      </g>
     </g>
     <g id="text_8">
      <!-- 2400 -->
      <defs>
       <path d="M 37.796875 64.3125 
L 12.890625 25.390625 
L 37.796875 25.390625 
z
M 35.203125 72.90625 
L 47.609375 72.90625 
L 47.609375 25.390625 
L 58.015625 25.390625 
L 58.015625 17.1875 
L 47.609375 17.1875 
L 47.609375 0 
L 37.796875 0 
L 37.796875 17.1875 
L 4.890625 17.1875 
L 4.890625 26.703125 
z
" id="DejaVuSans-52"/>
      </defs>
      <g transform="translate(24.749375 454.973671)scale(0.14 -0.14)">
       <use xlink:href="#DejaVuSans-50"/>
       <use x="63.623047" xlink:href="#DejaVuSans-52"/>
       <use x="127.246094" xlink:href="#DejaVuSans-48"/>
       <use x="190.869141" xlink:href="#DejaVuSans-48"/>
      </g>
     </g>
    </g>
    <g id="ytick_2">
     <g id="line2d_8">
      <g>
       <use style="stroke:#000000;stroke-width:0.8;" x="67.379375" xlink:href="#ma0cca102c1" y="385.420278"/>
      </g>
     </g>
     <g id="text_9">
      <!-- 2500 -->
      <g transform="translate(24.749375 390.739184)scale(0.14 -0.14)">
       <use xlink:href="#DejaVuSans-50"/>
       <use x="63.623047" xlink:href="#DejaVuSans-53"/>
       <use x="127.246094" xlink:href="#DejaVuSans-48"/>
       <use x="190.869141" xlink:href="#DejaVuSans-48"/>
      </g>
     </g>
    </g>
    <g id="ytick_3">
     <g id="line2d_9">
      <g>
       <use style="stroke:#000000;stroke-width:0.8;" x="67.379375" xlink:href="#ma0cca102c1" y="321.185791"/>
      </g>
     </g>
     <g id="text_10">
      <!-- 2600 -->
      <g transform="translate(24.749375 326.504697)scale(0.14 -0.14)">
       <use xlink:href="#DejaVuSans-50"/>
       <use x="63.623047" xlink:href="#DejaVuSans-54"/>
       <use x="127.246094" xlink:href="#DejaVuSans-48"/>
       <use x="190.869141" xlink:href="#DejaVuSans-48"/>
      </g>
     </g>
    </g>
    <g id="ytick_4">
     <g id="line2d_10">
      <g>
       <use style="stroke:#000000;stroke-width:0.8;" x="67.379375" xlink:href="#ma0cca102c1" y="256.951304"/>
      </g>
     </g>
     <g id="text_11">
      <!-- 2700 -->
      <g transform="translate(24.749375 262.270211)scale(0.14 -0.14)">
       <use xlink:href="#DejaVuSans-50"/>
       <use x="63.623047" xlink:href="#DejaVuSans-55"/>
       <use x="127.246094" xlink:href="#DejaVuSans-48"/>
       <use x="190.869141" xlink:href="#DejaVuSans-48"/>
      </g>
     </g>
    </g>
    <g id="ytick_5">
     <g id="line2d_11">
      <g>
       <use style="stroke:#000000;stroke-width:0.8;" x="67.379375" xlink:href="#ma0cca102c1" y="192.716818"/>
      </g>
     </g>
     <g id="text_12">
      <!-- 2800 -->
      <g transform="translate(24.749375 198.035724)scale(0.14 -0.14)">
       <use xlink:href="#DejaVuSans-50"/>
       <use x="63.623047" xlink:href="#DejaVuSans-56"/>
       <use x="127.246094" xlink:href="#DejaVuSans-48"/>
       <use x="190.869141" xlink:href="#DejaVuSans-48"/>
      </g>
     </g>
    </g>
    <g id="ytick_6">
     <g id="line2d_12">
      <g>
       <use style="stroke:#000000;stroke-width:0.8;" x="67.379375" xlink:href="#ma0cca102c1" y="128.482331"/>
      </g>
     </g>
     <g id="text_13">
      <!-- 2900 -->
      <g transform="translate(24.749375 133.801237)scale(0.14 -0.14)">
       <use xlink:href="#DejaVuSans-50"/>
       <use x="63.623047" xlink:href="#DejaVuSans-57"/>
       <use x="127.246094" xlink:href="#DejaVuSans-48"/>
       <use x="190.869141" xlink:href="#DejaVuSans-48"/>
      </g>
     </g>
    </g>
    <g id="ytick_7">
     <g id="line2d_13">
      <g>
       <use style="stroke:#000000;stroke-width:0.8;" x="67.379375" xlink:href="#ma0cca102c1" y="64.247844"/>
      </g>
     </g>
     <g id="text_14">
      <!-- 3000 -->
      <g transform="translate(24.749375 69.566751)scale(0.14 -0.14)">
       <use xlink:href="#DejaVuSans-51"/>
       <use x="63.623047" xlink:href="#DejaVuSans-48"/>
       <use x="127.246094" xlink:href="#DejaVuSans-48"/>
       <use x="190.869141" xlink:href="#DejaVuSans-48"/>
      </g>
     </g>
    </g>
    <g id="text_15">
     <!-- Price -->
     <defs>
      <path d="M 19.671875 64.796875 
L 19.671875 37.40625 
L 32.078125 37.40625 
Q 38.96875 37.40625 42.71875 40.96875 
Q 46.484375 44.53125 46.484375 51.125 
Q 46.484375 57.671875 42.71875 61.234375 
Q 38.96875 64.796875 32.078125 64.796875 
z
M 9.8125 72.90625 
L 32.078125 72.90625 
Q 44.34375 72.90625 50.609375 67.359375 
Q 56.890625 61.8125 56.890625 51.125 
Q 56.890625 40.328125 50.609375 34.8125 
Q 44.34375 29.296875 32.078125 29.296875 
L 19.671875 29.296875 
L 19.671875 0 
L 9.8125 0 
z
" id="DejaVuSans-80"/>
      <path d="M 41.109375 46.296875 
Q 39.59375 47.171875 37.8125 47.578125 
Q 36.03125 48 33.890625 48 
Q 26.265625 48 22.1875 43.046875 
Q 18.109375 38.09375 18.109375 28.8125 
L 18.109375 0 
L 9.078125 0 
L 9.078125 54.6875 
L 18.109375 54.6875 
L 18.109375 46.1875 
Q 20.953125 51.171875 25.484375 53.578125 
Q 30.03125 56 36.53125 56 
Q 37.453125 56 38.578125 55.875 
Q 39.703125 55.765625 41.0625 55.515625 
z
" id="DejaVuSans-114"/>
      <path d="M 9.421875 54.6875 
L 18.40625 54.6875 
L 18.40625 0 
L 9.421875 0 
z
M 9.421875 75.984375 
L 18.40625 75.984375 
L 18.40625 64.59375 
L 9.421875 64.59375 
z
" id="DejaVuSans-105"/>
      <path d="M 48.78125 52.59375 
L 48.78125 44.1875 
Q 44.96875 46.296875 41.140625 47.34375 
Q 37.3125 48.390625 33.40625 48.390625 
Q 24.65625 48.390625 19.8125 42.84375 
Q 14.984375 37.3125 14.984375 27.296875 
Q 14.984375 17.28125 19.8125 11.734375 
Q 24.65625 6.203125 33.40625 6.203125 
Q 37.3125 6.203125 41.140625 7.25 
Q 44.96875 8.296875 48.78125 10.40625 
L 48.78125 2.09375 
Q 45.015625 0.34375 40.984375 -0.53125 
Q 36.96875 -1.421875 32.421875 -1.421875 
Q 20.0625 -1.421875 12.78125 6.34375 
Q 5.515625 14.109375 5.515625 27.296875 
Q 5.515625 40.671875 12.859375 48.328125 
Q 20.21875 56 33.015625 56 
Q 37.15625 56 41.109375 55.140625 
Q 45.0625 54.296875 48.78125 52.59375 
z
" id="DejaVuSans-99"/>
     </defs>
     <g transform="translate(17.837813 281.549242)rotate(-90)scale(0.14 -0.14)">
      <use xlink:href="#DejaVuSans-80"/>
      <use x="60.287109" xlink:href="#DejaVuSans-114"/>
      <use x="101.400391" xlink:href="#DejaVuSans-105"/>
      <use x="129.183594" xlink:href="#DejaVuSans-99"/>
      <use x="184.164062" xlink:href="#DejaVuSans-101"/>
     </g>
    </g>
   </g>
   <g id="line2d_14">
    <defs>
     <path d="M 0 3 
C 0.795609 3 1.55874 2.683901 2.12132 2.12132 
C 2.683901 1.55874 3 0.795609 3 0 
C 3 -0.795609 2.683901 -1.55874 2.12132 -2.12132 
C 1.55874 -2.683901 0.795609 -3 0 -3 
C -0.795609 -3 -1.55874 -2.683901 -2.12132 -2.12132 
C -2.683901 -1.55874 -3 -0.795609 -3 0 
C -3 0.795609 -2.683901 1.55874 -2.12132 2.12132 
C -1.55874 2.683901 -0.795609 3 0 3 
z
" id="m308991ea37" style="stroke:#bfbf00;"/>
    </defs>
    <g clip-path="url(#p30ba2676f4)">
     <use style="fill:#bfbf00;stroke:#bfbf00;" x="93.847063" xlink:href="#m308991ea37" y="238.72798"/>
     <use style="fill:#bfbf00;stroke:#bfbf00;" x="110.332128" xlink:href="#m308991ea37" y="285.150244"/>
     <use style="fill:#bfbf00;stroke:#bfbf00;" x="115.827149" xlink:href="#m308991ea37" y="294.689065"/>
     <use style="fill:#bfbf00;stroke:#bfbf00;" x="123.153845" xlink:href="#m308991ea37" y="242.138832"/>
     <use style="fill:#bfbf00;stroke:#bfbf00;" x="137.807236" xlink:href="#m308991ea37" y="255.936399"/>
     <use style="fill:#bfbf00;stroke:#bfbf00;" x="148.79728" xlink:href="#m308991ea37" y="300.271042"/>
     <use style="fill:#bfbf00;stroke:#bfbf00;" x="165.282345" xlink:href="#m308991ea37" y="299.937023"/>
     <use style="fill:#bfbf00;stroke:#bfbf00;" x="185.430757" xlink:href="#m308991ea37" y="481.065428"/>
     <use style="fill:#bfbf00;stroke:#bfbf00;" x="196.420801" xlink:href="#m308991ea37" y="418.892869"/>
     <use style="fill:#bfbf00;stroke:#bfbf00;" x="209.242518" xlink:href="#m308991ea37" y="332.356168"/>
     <use style="fill:#bfbf00;stroke:#bfbf00;" x="218.400887" xlink:href="#m308991ea37" y="300.052645"/>
     <use style="fill:#bfbf00;stroke:#bfbf00;" x="227.559257" xlink:href="#m308991ea37" y="295.491996"/>
     <use style="fill:#bfbf00;stroke:#bfbf00;" x="240.380974" xlink:href="#m308991ea37" y="253.065118"/>
     <use style="fill:#bfbf00;stroke:#bfbf00;" x="256.866039" xlink:href="#m308991ea37" y="208.852521"/>
     <use style="fill:#bfbf00;stroke:#bfbf00;" x="266.024409" xlink:href="#m308991ea37" y="202.679587"/>
     <use style="fill:#bfbf00;stroke:#bfbf00;" x="277.014452" xlink:href="#m308991ea37" y="229.285511"/>
     <use style="fill:#bfbf00;stroke:#bfbf00;" x="291.667843" xlink:href="#m308991ea37" y="177.152802"/>
     <use style="fill:#bfbf00;stroke:#bfbf00;" x="297.162865" xlink:href="#m308991ea37" y="193.770263"/>
     <use style="fill:#bfbf00;stroke:#bfbf00;" x="300.826213" xlink:href="#m308991ea37" y="189.267426"/>
     <use style="fill:#bfbf00;stroke:#bfbf00;" x="317.311278" xlink:href="#m308991ea37" y="142.485449"/>
     <use style="fill:#bfbf00;stroke:#bfbf00;" x="328.301321" xlink:href="#m308991ea37" y="128.193276"/>
     <use style="fill:#bfbf00;stroke:#bfbf00;" x="337.459691" xlink:href="#m308991ea37" y="111.672166"/>
     <use style="fill:#bfbf00;stroke:#bfbf00;" x="346.61806" xlink:href="#m308991ea37" y="117.228449"/>
     <use style="fill:#bfbf00;stroke:#bfbf00;" x="355.776429" xlink:href="#m308991ea37" y="147.290189"/>
     <use style="fill:#bfbf00;stroke:#bfbf00;" x="359.439777" xlink:href="#m308991ea37" y="185.092184"/>
     <use style="fill:#bfbf00;stroke:#bfbf00;" x="368.598147" xlink:href="#m308991ea37" y="166.875284"/>
     <use style="fill:#bfbf00;stroke:#bfbf00;" x="385.083212" xlink:href="#m308991ea37" y="228.399075"/>
     <use style="fill:#bfbf00;stroke:#bfbf00;" x="397.904929" xlink:href="#m308991ea37" y="141.432004"/>
     <use style="fill:#bfbf00;stroke:#bfbf00;" x="401.568277" xlink:href="#m308991ea37" y="136.845661"/>
     <use style="fill:#bfbf00;stroke:#bfbf00;" x="416.221668" xlink:href="#m308991ea37" y="119.630819"/>
     <use style="fill:#bfbf00;stroke:#bfbf00;" x="429.043385" xlink:href="#m308991ea37" y="79.696238"/>
     <use style="fill:#bfbf00;stroke:#bfbf00;" x="445.52845" xlink:href="#m308991ea37" y="79.272291"/>
     <use style="fill:#bfbf00;stroke:#bfbf00;" x="452.855146" xlink:href="#m308991ea37" y="61.890439"/>
     <use style="fill:#bfbf00;stroke:#bfbf00;" x="465.676863" xlink:href="#m308991ea37" y="163.978308"/>
     <use style="fill:#bfbf00;stroke:#bfbf00;" x="474.835233" xlink:href="#m308991ea37" y="139.594897"/>
     <use style="fill:#bfbf00;stroke:#bfbf00;" x="478.49858" xlink:href="#m308991ea37" y="166.637616"/>
     <use style="fill:#bfbf00;stroke:#bfbf00;" x="491.320298" xlink:href="#m308991ea37" y="162.455951"/>
     <use style="fill:#bfbf00;stroke:#bfbf00;" x="502.310341" xlink:href="#m308991ea37" y="124.454829"/>
     <use style="fill:#bfbf00;stroke:#bfbf00;" x="518.795406" xlink:href="#m308991ea37" y="65.558228"/>
     <use style="fill:#bfbf00;stroke:#bfbf00;" x="529.785449" xlink:href="#m308991ea37" y="85.702163"/>
     <use style="fill:#bfbf00;stroke:#bfbf00;" x="540.775493" xlink:href="#m308991ea37" y="136.440984"/>
    </g>
   </g>
   <g id="line2d_15">
    <defs>
     <path d="M 0 3 
C 0.795609 3 1.55874 2.683901 2.12132 2.12132 
C 2.683901 1.55874 3 0.795609 3 0 
C 3 -0.795609 2.683901 -1.55874 2.12132 -2.12132 
C 1.55874 -2.683901 0.795609 -3 0 -3 
C -0.795609 -3 -1.55874 -2.683901 -2.12132 -2.12132 
C -2.683901 -1.55874 -3 -0.795609 -3 0 
C -3 0.795609 -2.683901 1.55874 -2.12132 2.12132 
C -1.55874 2.683901 -0.795609 3 0 3 
z
" id="mf682b36424" style="stroke:#0000ff;"/>
    </defs>
    <g clip-path="url(#p30ba2676f4)">
     <use style="fill:#0000ff;stroke:#0000ff;" x="99.342084" xlink:href="#mf682b36424" y="186.344757"/>
     <use style="fill:#0000ff;stroke:#0000ff;" x="112.163802" xlink:href="#mf682b36424" y="253.373443"/>
     <use style="fill:#0000ff;stroke:#0000ff;" x="121.322171" xlink:href="#mf682b36424" y="231.019842"/>
     <use style="fill:#0000ff;stroke:#0000ff;" x="128.648867" xlink:href="#mf682b36424" y="183.794647"/>
     <use style="fill:#0000ff;stroke:#0000ff;" x="141.470584" xlink:href="#mf682b36424" y="233.653456"/>
     <use style="fill:#0000ff;stroke:#0000ff;" x="159.787323" xlink:href="#mf682b36424" y="198.902599"/>
     <use style="fill:#0000ff;stroke:#0000ff;" x="170.777366" xlink:href="#mf682b36424" y="288.381239"/>
     <use style="fill:#0000ff;stroke:#0000ff;" x="194.589127" xlink:href="#mf682b36424" y="378.977559"/>
     <use style="fill:#0000ff;stroke:#0000ff;" x="205.57917" xlink:href="#mf682b36424" y="323.34407"/>
     <use style="fill:#0000ff;stroke:#0000ff;" x="216.569214" xlink:href="#mf682b36424" y="275.765585"/>
     <use style="fill:#0000ff;stroke:#0000ff;" x="223.895909" xlink:href="#mf682b36424" y="279.587537"/>
     <use style="fill:#0000ff;stroke:#0000ff;" x="236.717626" xlink:href="#mf682b36424" y="232.734903"/>
     <use style="fill:#0000ff;stroke:#0000ff;" x="255.034365" xlink:href="#mf682b36424" y="202.544694"/>
     <use style="fill:#0000ff;stroke:#0000ff;" x="260.529387" xlink:href="#mf682b36424" y="195.215539"/>
     <use style="fill:#0000ff;stroke:#0000ff;" x="267.856083" xlink:href="#mf682b36424" y="190.346565"/>
     <use style="fill:#0000ff;stroke:#0000ff;" x="288.004495" xlink:href="#mf682b36424" y="171.557978"/>
     <use style="fill:#0000ff;stroke:#0000ff;" x="293.499517" xlink:href="#mf682b36424" y="157.464931"/>
     <use style="fill:#0000ff;stroke:#0000ff;" x="298.994539" xlink:href="#mf682b36424" y="180.859131"/>
     <use style="fill:#0000ff;stroke:#0000ff;" x="315.479604" xlink:href="#mf682b36424" y="131.19945"/>
     <use style="fill:#0000ff;stroke:#0000ff;" x="322.806299" xlink:href="#mf682b36424" y="123.722556"/>
     <use style="fill:#0000ff;stroke:#0000ff;" x="333.796343" xlink:href="#mf682b36424" y="106.848156"/>
     <use style="fill:#0000ff;stroke:#0000ff;" x="342.954712" xlink:href="#mf682b36424" y="99.043666"/>
     <use style="fill:#0000ff;stroke:#0000ff;" x="348.449734" xlink:href="#mf682b36424" y="99.165711"/>
     <use style="fill:#0000ff;stroke:#0000ff;" x="357.608103" xlink:href="#mf682b36424" y="140.429946"/>
     <use style="fill:#0000ff;stroke:#0000ff;" x="364.934799" xlink:href="#mf682b36424" y="143.693057"/>
     <use style="fill:#0000ff;stroke:#0000ff;" x="370.429821" xlink:href="#mf682b36424" y="151.375502"/>
     <use style="fill:#0000ff;stroke:#0000ff;" x="394.241581" xlink:href="#mf682b36424" y="137.006247"/>
     <use style="fill:#0000ff;stroke:#0000ff;" x="399.736603" xlink:href="#mf682b36424" y="133.852334"/>
     <use style="fill:#0000ff;stroke:#0000ff;" x="408.894972" xlink:href="#mf682b36424" y="93.680086"/>
     <use style="fill:#0000ff;stroke:#0000ff;" x="425.380037" xlink:href="#mf682b36424" y="66.932846"/>
     <use style="fill:#0000ff;stroke:#0000ff;" x="438.201755" xlink:href="#mf682b36424" y="55.062313"/>
     <use style="fill:#0000ff;stroke:#0000ff;" x="451.023472" xlink:href="#mf682b36424" y="51.683579"/>
     <use style="fill:#0000ff;stroke:#0000ff;" x="454.68682" xlink:href="#mf682b36424" y="47.636806"/>
     <use style="fill:#0000ff;stroke:#0000ff;" x="471.171885" xlink:href="#mf682b36424" y="104.015415"/>
     <use style="fill:#0000ff;stroke:#0000ff;" x="476.666906" xlink:href="#mf682b36424" y="111.575814"/>
     <use style="fill:#0000ff;stroke:#0000ff;" x="487.65695" xlink:href="#mf682b36424" y="112.789846"/>
     <use style="fill:#0000ff;stroke:#0000ff;" x="500.478667" xlink:href="#mf682b36424" y="111.485886"/>
     <use style="fill:#0000ff;stroke:#0000ff;" x="515.132058" xlink:href="#mf682b36424" y="58.100604"/>
     <use style="fill:#0000ff;stroke:#0000ff;" x="524.290428" xlink:href="#mf682b36424" y="59.886323"/>
     <use style="fill:#0000ff;stroke:#0000ff;" x="531.617123" xlink:href="#mf682b36424" y="73.966522"/>
     <use style="fill:#0000ff;stroke:#0000ff;" x="544.43884" xlink:href="#mf682b36424" y="95.073975"/>
    </g>
   </g>
   <g id="line2d_16">
    <path clip-path="url(#p30ba2676f4)" d="M 90.183715 324.358268 
L 546.270514 74.491034 
" style="fill:none;stroke:#bfbf00;stroke-dasharray:5.55,2.4;stroke-dashoffset:0;stroke-width:1.5;"/>
   </g>
   <g id="line2d_17">
    <path clip-path="url(#p30ba2676f4)" d="M 90.183715 275.213886 
L 546.270514 50.301763 
" style="fill:none;stroke:#0000ff;stroke-dasharray:5.55,2.4;stroke-dashoffset:0;stroke-width:1.5;"/>
   </g>
   <g id="line2d_18">
    <path clip-path="url(#p30ba2676f4)" d="M 90.183715 141.110831 
L 92.015389 201.915196 
L 93.847063 238.72798 
L 95.678737 213.830693 
L 97.510411 224.326609 
L 99.342084 186.344757 
L 101.173758 186.800821 
L 103.005432 212.770824 
L 104.837106 213.413169 
L 106.66878 221.057073 
L 108.500454 230.814292 
L 110.332128 285.150244 
L 112.163802 253.373443 
L 113.995476 283.486571 
L 115.827149 294.689065 
L 117.658823 268.108835 
L 121.322171 231.019842 
L 123.153845 242.138832 
L 124.985519 232.343072 
L 126.817193 221.333281 
L 128.648867 183.794647 
L 130.480541 188.329602 
L 132.312215 204.914947 
L 134.143888 240.109022 
L 135.975562 242.704095 
L 137.807236 255.936399 
L 139.63891 237.552489 
L 141.470584 233.653456 
L 143.302258 262.905841 
L 145.133932 294.277965 
L 146.965606 289.113512 
L 148.79728 300.271042 
L 150.628953 274.005561 
L 152.460627 268.404313 
L 154.292301 228.823023 
L 156.123975 232.670668 
L 157.955649 218.301414 
L 159.787323 198.902599 
L 161.618997 256.912764 
L 163.450671 259.552801 
L 165.282345 299.937023 
L 167.114018 296.956543 
L 168.945692 297.560347 
L 170.777366 288.381239 
L 172.60904 288.721681 
L 174.440714 321.217908 
L 176.272388 355.910954 
L 178.104062 355.769639 
L 181.76741 406.347873 
L 183.599084 438.978993 
L 185.430757 481.065428 
L 187.262431 406.168017 
L 189.094105 392.59527 
L 190.925779 394.580115 
L 192.757453 381.020215 
L 194.589127 378.977559 
L 196.420801 418.892869 
L 198.252475 364.903783 
L 200.084149 353.502161 
L 201.915822 337.623396 
L 203.747496 330.846658 
L 205.57917 323.34407 
L 207.410844 323.588161 
L 209.242518 332.356168 
L 211.074192 314.569639 
L 212.905866 310.844039 
L 214.73754 298.08707 
L 216.569214 275.765585 
L 218.400887 300.052645 
L 220.232561 296.327045 
L 222.064235 293.995333 
L 223.895909 279.587537 
L 225.727583 293.018969 
L 227.559257 295.491996 
L 229.390931 269.12374 
L 231.222605 254.31769 
L 233.054279 252.756792 
L 234.885953 240.976187 
L 236.717626 232.734903 
L 238.5493 236.646783 
L 240.380974 253.065118 
L 244.044322 250.656325 
L 245.875996 228.219218 
L 247.70767 222.887756 
L 249.539344 227.576874 
L 251.371018 208.390032 
L 253.202691 205.717878 
L 255.034365 202.544694 
L 256.866039 208.852521 
L 258.697713 197.425206 
L 260.529387 195.215539 
L 262.361061 196.635121 
L 264.192735 197.611486 
L 266.024409 202.679587 
L 267.856083 190.346565 
L 269.687757 197.335277 
L 271.51943 199.365087 
L 273.351104 211.055764 
L 275.182778 225.52137 
L 277.014452 229.285511 
L 278.846126 203.443977 
L 280.6778 198.163902 
L 282.509474 185.702412 
L 284.341148 187.269733 
L 286.172822 178.276905 
L 288.004495 171.557978 
L 289.836169 171.795645 
L 291.667843 177.152802 
L 293.499517 157.464931 
L 295.331191 192.260753 
L 297.162865 193.770263 
L 298.994539 180.859131 
L 300.826213 189.267426 
L 302.657887 182.799013 
L 304.48956 170.620154 
L 306.321234 149.557666 
L 308.152908 149.525549 
L 311.816256 141.721059 
L 313.64793 133.145755 
L 315.479604 131.19945 
L 317.311278 142.485449 
L 319.142952 136.055577 
L 320.974626 135.984919 
L 322.806299 123.722556 
L 324.637973 124.898047 
L 326.469647 123.947376 
L 328.301321 128.193276 
L 330.132995 125.251336 
L 331.964669 123.362842 
L 333.796343 106.848156 
L 335.628017 110.978433 
L 337.459691 111.672166 
L 339.291364 102.865618 
L 341.123038 100.842231 
L 342.954712 99.043666 
L 344.786386 113.239487 
L 346.61806 117.228449 
L 348.449734 99.165711 
L 350.281408 107.625393 
L 352.113082 138.727732 
L 353.944756 141.701788 
L 355.776429 147.290189 
L 357.608103 140.429946 
L 359.439777 185.092184 
L 361.271451 170.613731 
L 363.103125 159.982923 
L 364.934799 143.693057 
L 366.766473 154.478028 
L 368.598147 166.875284 
L 370.429821 151.375502 
L 372.261495 156.572072 
L 374.093168 178.431068 
L 375.924842 175.97731 
L 377.756516 191.181613 
L 379.58819 203.623834 
L 381.419864 199.872539 
L 383.251538 223.510831 
L 385.083212 228.399075 
L 386.914886 190.61635 
L 388.74656 175.919499 
L 390.578233 164.781239 
L 392.409907 145.607245 
L 394.241581 137.006247 
L 396.073255 137.655016 
L 397.904929 141.432004 
L 399.736603 133.852334 
L 401.568277 136.845661 
L 403.399951 135.117753 
L 405.231625 117.08071 
L 407.063298 111.485886 
L 408.894972 93.680086 
L 410.726646 96.069609 
L 412.55832 99.351991 
L 414.389994 117.318377 
L 416.221668 119.630819 
L 418.053342 112.475097 
L 419.885016 101.658009 
L 421.71669 87.160286 
L 423.548364 81.584732 
L 425.380037 66.932846 
L 427.211711 70.407932 
L 429.043385 79.696238 
L 430.875059 77.332409 
L 432.706733 68.699294 
L 434.538407 64.305655 
L 436.370081 55.402756 
L 438.201755 55.062313 
L 440.033429 61.652771 
L 441.865102 74.255577 
L 443.696776 67.388911 
L 445.52845 79.272291 
L 447.360124 73.863747 
L 449.191798 60.734218 
L 451.023472 51.683579 
L 452.855146 61.890439 
L 454.68682 47.636806 
L 456.518494 50.777873 
L 458.350168 55.781739 
L 460.181841 76.850651 
L 462.013515 94.07834 
L 463.845189 107.895178 
L 465.676863 163.978308 
L 467.508537 140.192278 
L 469.340211 138.772696 
L 471.171885 104.015415 
L 473.003559 116.502599 
L 474.835233 139.594897 
L 476.666906 111.575814 
L 478.49858 166.637616 
L 480.330254 162.141202 
L 482.161928 135.753675 
L 483.993602 113.290875 
L 485.825276 128.154735 
L 487.65695 112.789846 
L 489.488624 113.740516 
L 491.320298 162.455951 
L 493.151971 142.369827 
L 494.983645 148.292247 
L 496.815319 136.22901 
L 498.646993 112.693494 
L 500.478667 111.485886 
L 502.310341 124.454829 
L 504.142015 104.214542 
L 505.973689 79.664121 
L 507.805363 77.923367 
L 509.637037 78.103223 
L 511.46871 77.486572 
L 513.300384 63.650464 
L 515.132058 58.100604 
L 516.963732 59.500916 
L 518.795406 65.558228 
L 520.62708 60.586479 
L 522.458754 59.924863 
L 524.290428 59.886323 
L 526.122102 69.341639 
L 527.953775 69.527919 
L 529.785449 85.702163 
L 531.617123 73.966522 
L 533.448797 78.623522 
L 535.280471 88.791842 
L 537.112145 79.188786 
L 538.943819 102.62795 
L 540.775493 136.440984 
L 542.607167 121.654205 
L 544.43884 95.073975 
L 546.270514 103.565774 
L 546.270514 103.565774 
" style="fill:none;stroke:#000000;stroke-dasharray:5.55,2.4;stroke-dashoffset:0;stroke-width:1.5;"/>
   </g>
   <g id="line2d_19">
    <path clip-path="url(#p30ba2676f4)" d="M 209.242518 332.341698 
L 542.607167 135.342226 
" style="fill:none;stroke:#008000;stroke-dasharray:5.55,2.4;stroke-dashoffset:0;stroke-width:1.5;"/>
   </g>
   <g id="line2d_20">
    <path clip-path="url(#p30ba2676f4)" d="M 196.420801 418.956702 
L 333.796343 116.330809 
" style="fill:none;stroke:#008000;stroke-dasharray:5.55,2.4;stroke-dashoffset:0;stroke-width:1.5;"/>
   </g>
   <g id="line2d_21">
    <path clip-path="url(#p30ba2676f4)" d="M 128.648867 183.733699 
L 436.370081 62.442554 
" style="fill:none;stroke:#ff0000;stroke-dasharray:5.55,2.4;stroke-dashoffset:0;stroke-width:1.5;"/>
   </g>
   <g id="line2d_22">
    <path clip-path="url(#p30ba2676f4)" d="M 99.342084 186.221705 
L 293.499517 171.10759 
" style="fill:none;stroke:#ff0000;stroke-dasharray:5.55,2.4;stroke-dashoffset:0;stroke-width:1.5;"/>
   </g>
   <g id="patch_3">
    <path d="M 67.379375 502.736859 
L 67.379375 25.965375 
" style="fill:none;stroke:#000000;stroke-linecap:square;stroke-linejoin:miter;stroke-width:0.8;"/>
   </g>
   <g id="patch_4">
    <path d="M 569.074854 502.736859 
L 569.074854 25.965375 
" style="fill:none;stroke:#000000;stroke-linecap:square;stroke-linejoin:miter;stroke-width:0.8;"/>
   </g>
   <g id="patch_5">
    <path d="M 67.379375 502.736859 
L 569.074854 502.736859 
" style="fill:none;stroke:#000000;stroke-linecap:square;stroke-linejoin:miter;stroke-width:0.8;"/>
   </g>
   <g id="patch_6">
    <path d="M 67.379375 25.965375 
L 569.074854 25.965375 
" style="fill:none;stroke:#000000;stroke-linecap:square;stroke-linejoin:miter;stroke-width:0.8;"/>
   </g>
   <g id="text_16">
    <!-- Closing Price with Support/Resistance Trend Lines -->
    <defs>
     <path d="M 64.40625 67.28125 
L 64.40625 56.890625 
Q 59.421875 61.53125 53.78125 63.8125 
Q 48.140625 66.109375 41.796875 66.109375 
Q 29.296875 66.109375 22.65625 58.46875 
Q 16.015625 50.828125 16.015625 36.375 
Q 16.015625 21.96875 22.65625 14.328125 
Q 29.296875 6.6875 41.796875 6.6875 
Q 48.140625 6.6875 53.78125 8.984375 
Q 59.421875 11.28125 64.40625 15.921875 
L 64.40625 5.609375 
Q 59.234375 2.09375 53.4375 0.328125 
Q 47.65625 -1.421875 41.21875 -1.421875 
Q 24.65625 -1.421875 15.125 8.703125 
Q 5.609375 18.84375 5.609375 36.375 
Q 5.609375 53.953125 15.125 64.078125 
Q 24.65625 74.21875 41.21875 74.21875 
Q 47.75 74.21875 53.53125 72.484375 
Q 59.328125 70.75 64.40625 67.28125 
z
" id="DejaVuSans-67"/>
     <path d="M 9.421875 75.984375 
L 18.40625 75.984375 
L 18.40625 0 
L 9.421875 0 
z
" id="DejaVuSans-108"/>
     <path d="M 30.609375 48.390625 
Q 23.390625 48.390625 19.1875 42.75 
Q 14.984375 37.109375 14.984375 27.296875 
Q 14.984375 17.484375 19.15625 11.84375 
Q 23.34375 6.203125 30.609375 6.203125 
Q 37.796875 6.203125 41.984375 11.859375 
Q 46.1875 17.53125 46.1875 27.296875 
Q 46.1875 37.015625 41.984375 42.703125 
Q 37.796875 48.390625 30.609375 48.390625 
z
M 30.609375 56 
Q 42.328125 56 49.015625 48.375 
Q 55.71875 40.765625 55.71875 27.296875 
Q 55.71875 13.875 49.015625 6.21875 
Q 42.328125 -1.421875 30.609375 -1.421875 
Q 18.84375 -1.421875 12.171875 6.21875 
Q 5.515625 13.875 5.515625 27.296875 
Q 5.515625 40.765625 12.171875 48.375 
Q 18.84375 56 30.609375 56 
z
" id="DejaVuSans-111"/>
     <path d="M 44.28125 53.078125 
L 44.28125 44.578125 
Q 40.484375 46.53125 36.375 47.5 
Q 32.28125 48.484375 27.875 48.484375 
Q 21.1875 48.484375 17.84375 46.4375 
Q 14.5 44.390625 14.5 40.28125 
Q 14.5 37.15625 16.890625 35.375 
Q 19.28125 33.59375 26.515625 31.984375 
L 29.59375 31.296875 
Q 39.15625 29.25 43.1875 25.515625 
Q 47.21875 21.78125 47.21875 15.09375 
Q 47.21875 7.46875 41.1875 3.015625 
Q 35.15625 -1.421875 24.609375 -1.421875 
Q 20.21875 -1.421875 15.453125 -0.5625 
Q 10.6875 0.296875 5.421875 2 
L 5.421875 11.28125 
Q 10.40625 8.6875 15.234375 7.390625 
Q 20.0625 6.109375 24.8125 6.109375 
Q 31.15625 6.109375 34.5625 8.28125 
Q 37.984375 10.453125 37.984375 14.40625 
Q 37.984375 18.0625 35.515625 20.015625 
Q 33.0625 21.96875 24.703125 23.78125 
L 21.578125 24.515625 
Q 13.234375 26.265625 9.515625 29.90625 
Q 5.8125 33.546875 5.8125 39.890625 
Q 5.8125 47.609375 11.28125 51.796875 
Q 16.75 56 26.8125 56 
Q 31.78125 56 36.171875 55.265625 
Q 40.578125 54.546875 44.28125 53.078125 
z
" id="DejaVuSans-115"/>
     <path d="M 54.890625 33.015625 
L 54.890625 0 
L 45.90625 0 
L 45.90625 32.71875 
Q 45.90625 40.484375 42.875 44.328125 
Q 39.84375 48.1875 33.796875 48.1875 
Q 26.515625 48.1875 22.3125 43.546875 
Q 18.109375 38.921875 18.109375 30.90625 
L 18.109375 0 
L 9.078125 0 
L 9.078125 54.6875 
L 18.109375 54.6875 
L 18.109375 46.1875 
Q 21.34375 51.125 25.703125 53.5625 
Q 30.078125 56 35.796875 56 
Q 45.21875 56 50.046875 50.171875 
Q 54.890625 44.34375 54.890625 33.015625 
z
" id="DejaVuSans-110"/>
     <path d="M 45.40625 27.984375 
Q 45.40625 37.75 41.375 43.109375 
Q 37.359375 48.484375 30.078125 48.484375 
Q 22.859375 48.484375 18.828125 43.109375 
Q 14.796875 37.75 14.796875 27.984375 
Q 14.796875 18.265625 18.828125 12.890625 
Q 22.859375 7.515625 30.078125 7.515625 
Q 37.359375 7.515625 41.375 12.890625 
Q 45.40625 18.265625 45.40625 27.984375 
z
M 54.390625 6.78125 
Q 54.390625 -7.171875 48.1875 -13.984375 
Q 42 -20.796875 29.203125 -20.796875 
Q 24.46875 -20.796875 20.265625 -20.09375 
Q 16.0625 -19.390625 12.109375 -17.921875 
L 12.109375 -9.1875 
Q 16.0625 -11.328125 19.921875 -12.34375 
Q 23.78125 -13.375 27.78125 -13.375 
Q 36.625 -13.375 41.015625 -8.765625 
Q 45.40625 -4.15625 45.40625 5.171875 
L 45.40625 9.625 
Q 42.625 4.78125 38.28125 2.390625 
Q 33.9375 0 27.875 0 
Q 17.828125 0 11.671875 7.65625 
Q 5.515625 15.328125 5.515625 27.984375 
Q 5.515625 40.671875 11.671875 48.328125 
Q 17.828125 56 27.875 56 
Q 33.9375 56 38.28125 53.609375 
Q 42.625 51.21875 45.40625 46.390625 
L 45.40625 54.6875 
L 54.390625 54.6875 
z
" id="DejaVuSans-103"/>
     <path id="DejaVuSans-32"/>
     <path d="M 4.203125 54.6875 
L 13.1875 54.6875 
L 24.421875 12.015625 
L 35.59375 54.6875 
L 46.1875 54.6875 
L 57.421875 12.015625 
L 68.609375 54.6875 
L 77.59375 54.6875 
L 63.28125 0 
L 52.6875 0 
L 40.921875 44.828125 
L 29.109375 0 
L 18.5 0 
z
" id="DejaVuSans-119"/>
     <path d="M 54.890625 33.015625 
L 54.890625 0 
L 45.90625 0 
L 45.90625 32.71875 
Q 45.90625 40.484375 42.875 44.328125 
Q 39.84375 48.1875 33.796875 48.1875 
Q 26.515625 48.1875 22.3125 43.546875 
Q 18.109375 38.921875 18.109375 30.90625 
L 18.109375 0 
L 9.078125 0 
L 9.078125 75.984375 
L 18.109375 75.984375 
L 18.109375 46.1875 
Q 21.34375 51.125 25.703125 53.5625 
Q 30.078125 56 35.796875 56 
Q 45.21875 56 50.046875 50.171875 
Q 54.890625 44.34375 54.890625 33.015625 
z
" id="DejaVuSans-104"/>
     <path d="M 53.515625 70.515625 
L 53.515625 60.890625 
Q 47.90625 63.578125 42.921875 64.890625 
Q 37.9375 66.21875 33.296875 66.21875 
Q 25.25 66.21875 20.875 63.09375 
Q 16.5 59.96875 16.5 54.203125 
Q 16.5 49.359375 19.40625 46.890625 
Q 22.3125 44.4375 30.421875 42.921875 
L 36.375 41.703125 
Q 47.40625 39.59375 52.65625 34.296875 
Q 57.90625 29 57.90625 20.125 
Q 57.90625 9.515625 50.796875 4.046875 
Q 43.703125 -1.421875 29.984375 -1.421875 
Q 24.8125 -1.421875 18.96875 -0.25 
Q 13.140625 0.921875 6.890625 3.21875 
L 6.890625 13.375 
Q 12.890625 10.015625 18.65625 8.296875 
Q 24.421875 6.59375 29.984375 6.59375 
Q 38.421875 6.59375 43.015625 9.90625 
Q 47.609375 13.234375 47.609375 19.390625 
Q 47.609375 24.75 44.3125 27.78125 
Q 41.015625 30.8125 33.5 32.328125 
L 27.484375 33.5 
Q 16.453125 35.6875 11.515625 40.375 
Q 6.59375 45.0625 6.59375 53.421875 
Q 6.59375 63.09375 13.40625 68.65625 
Q 20.21875 74.21875 32.171875 74.21875 
Q 37.3125 74.21875 42.625 73.28125 
Q 47.953125 72.359375 53.515625 70.515625 
z
" id="DejaVuSans-83"/>
     <path d="M 8.5 21.578125 
L 8.5 54.6875 
L 17.484375 54.6875 
L 17.484375 21.921875 
Q 17.484375 14.15625 20.5 10.265625 
Q 23.53125 6.390625 29.59375 6.390625 
Q 36.859375 6.390625 41.078125 11.03125 
Q 45.3125 15.671875 45.3125 23.6875 
L 45.3125 54.6875 
L 54.296875 54.6875 
L 54.296875 0 
L 45.3125 0 
L 45.3125 8.40625 
Q 42.046875 3.421875 37.71875 1 
Q 33.40625 -1.421875 27.6875 -1.421875 
Q 18.265625 -1.421875 13.375 4.4375 
Q 8.5 10.296875 8.5 21.578125 
z
M 31.109375 56 
z
" id="DejaVuSans-117"/>
     <path d="M 18.109375 8.203125 
L 18.109375 -20.796875 
L 9.078125 -20.796875 
L 9.078125 54.6875 
L 18.109375 54.6875 
L 18.109375 46.390625 
Q 20.953125 51.265625 25.265625 53.625 
Q 29.59375 56 35.59375 56 
Q 45.5625 56 51.78125 48.09375 
Q 58.015625 40.1875 58.015625 27.296875 
Q 58.015625 14.40625 51.78125 6.484375 
Q 45.5625 -1.421875 35.59375 -1.421875 
Q 29.59375 -1.421875 25.265625 0.953125 
Q 20.953125 3.328125 18.109375 8.203125 
z
M 48.6875 27.296875 
Q 48.6875 37.203125 44.609375 42.84375 
Q 40.53125 48.484375 33.40625 48.484375 
Q 26.265625 48.484375 22.1875 42.84375 
Q 18.109375 37.203125 18.109375 27.296875 
Q 18.109375 17.390625 22.1875 11.75 
Q 26.265625 6.109375 33.40625 6.109375 
Q 40.53125 6.109375 44.609375 11.75 
Q 48.6875 17.390625 48.6875 27.296875 
z
" id="DejaVuSans-112"/>
     <path d="M 25.390625 72.90625 
L 33.6875 72.90625 
L 8.296875 -9.28125 
L 0 -9.28125 
z
" id="DejaVuSans-47"/>
     <path d="M 44.390625 34.1875 
Q 47.5625 33.109375 50.5625 29.59375 
Q 53.5625 26.078125 56.59375 19.921875 
L 66.609375 0 
L 56 0 
L 46.6875 18.703125 
Q 43.0625 26.03125 39.671875 28.421875 
Q 36.28125 30.8125 30.421875 30.8125 
L 19.671875 30.8125 
L 19.671875 0 
L 9.8125 0 
L 9.8125 72.90625 
L 32.078125 72.90625 
Q 44.578125 72.90625 50.734375 67.671875 
Q 56.890625 62.453125 56.890625 51.90625 
Q 56.890625 45.015625 53.6875 40.46875 
Q 50.484375 35.9375 44.390625 34.1875 
z
M 19.671875 64.796875 
L 19.671875 38.921875 
L 32.078125 38.921875 
Q 39.203125 38.921875 42.84375 42.21875 
Q 46.484375 45.515625 46.484375 51.90625 
Q 46.484375 58.296875 42.84375 61.546875 
Q 39.203125 64.796875 32.078125 64.796875 
z
" id="DejaVuSans-82"/>
     <path d="M -0.296875 72.90625 
L 61.375 72.90625 
L 61.375 64.59375 
L 35.5 64.59375 
L 35.5 0 
L 25.59375 0 
L 25.59375 64.59375 
L -0.296875 64.59375 
z
" id="DejaVuSans-84"/>
     <path d="M 45.40625 46.390625 
L 45.40625 75.984375 
L 54.390625 75.984375 
L 54.390625 0 
L 45.40625 0 
L 45.40625 8.203125 
Q 42.578125 3.328125 38.25 0.953125 
Q 33.9375 -1.421875 27.875 -1.421875 
Q 17.96875 -1.421875 11.734375 6.484375 
Q 5.515625 14.40625 5.515625 27.296875 
Q 5.515625 40.1875 11.734375 48.09375 
Q 17.96875 56 27.875 56 
Q 33.9375 56 38.25 53.625 
Q 42.578125 51.265625 45.40625 46.390625 
z
M 14.796875 27.296875 
Q 14.796875 17.390625 18.875 11.75 
Q 22.953125 6.109375 30.078125 6.109375 
Q 37.203125 6.109375 41.296875 11.75 
Q 45.40625 17.390625 45.40625 27.296875 
Q 45.40625 37.203125 41.296875 42.84375 
Q 37.203125 48.484375 30.078125 48.484375 
Q 22.953125 48.484375 18.875 42.84375 
Q 14.796875 37.203125 14.796875 27.296875 
z
" id="DejaVuSans-100"/>
     <path d="M 9.8125 72.90625 
L 19.671875 72.90625 
L 19.671875 8.296875 
L 55.171875 8.296875 
L 55.171875 0 
L 9.8125 0 
z
" id="DejaVuSans-76"/>
    </defs>
    <g transform="translate(107.77299 19.965375)scale(0.168 -0.168)">
     <use xlink:href="#DejaVuSans-67"/>
     <use x="69.824219" xlink:href="#DejaVuSans-108"/>
     <use x="97.607422" xlink:href="#DejaVuSans-111"/>
     <use x="158.789062" xlink:href="#DejaVuSans-115"/>
     <use x="210.888672" xlink:href="#DejaVuSans-105"/>
     <use x="238.671875" xlink:href="#DejaVuSans-110"/>
     <use x="302.050781" xlink:href="#DejaVuSans-103"/>
     <use x="365.527344" xlink:href="#DejaVuSans-32"/>
     <use x="397.314453" xlink:href="#DejaVuSans-80"/>
     <use x="457.601562" xlink:href="#DejaVuSans-114"/>
     <use x="498.714844" xlink:href="#DejaVuSans-105"/>
     <use x="526.498047" xlink:href="#DejaVuSans-99"/>
     <use x="581.478516" xlink:href="#DejaVuSans-101"/>
     <use x="643.001953" xlink:href="#DejaVuSans-32"/>
     <use x="674.789062" xlink:href="#DejaVuSans-119"/>
     <use x="756.576172" xlink:href="#DejaVuSans-105"/>
     <use x="784.359375" xlink:href="#DejaVuSans-116"/>
     <use x="823.568359" xlink:href="#DejaVuSans-104"/>
     <use x="886.947266" xlink:href="#DejaVuSans-32"/>
     <use x="918.734375" xlink:href="#DejaVuSans-83"/>
     <use x="982.210938" xlink:href="#DejaVuSans-117"/>
     <use x="1045.589844" xlink:href="#DejaVuSans-112"/>
     <use x="1109.066406" xlink:href="#DejaVuSans-112"/>
     <use x="1172.542969" xlink:href="#DejaVuSans-111"/>
     <use x="1233.724609" xlink:href="#DejaVuSans-114"/>
     <use x="1274.837891" xlink:href="#DejaVuSans-116"/>
     <use x="1314.046875" xlink:href="#DejaVuSans-47"/>
     <use x="1347.738281" xlink:href="#DejaVuSans-82"/>
     <use x="1417.158203" xlink:href="#DejaVuSans-101"/>
     <use x="1478.681641" xlink:href="#DejaVuSans-115"/>
     <use x="1530.78125" xlink:href="#DejaVuSans-105"/>
     <use x="1558.564453" xlink:href="#DejaVuSans-115"/>
     <use x="1610.664062" xlink:href="#DejaVuSans-116"/>
     <use x="1649.873047" xlink:href="#DejaVuSans-97"/>
     <use x="1711.152344" xlink:href="#DejaVuSans-110"/>
     <use x="1774.53125" xlink:href="#DejaVuSans-99"/>
     <use x="1829.511719" xlink:href="#DejaVuSans-101"/>
     <use x="1891.035156" xlink:href="#DejaVuSans-32"/>
     <use x="1922.822266" xlink:href="#DejaVuSans-84"/>
     <use x="1983.6875" xlink:href="#DejaVuSans-114"/>
     <use x="2024.769531" xlink:href="#DejaVuSans-101"/>
     <use x="2086.292969" xlink:href="#DejaVuSans-110"/>
     <use x="2149.671875" xlink:href="#DejaVuSans-100"/>
     <use x="2213.148438" xlink:href="#DejaVuSans-32"/>
     <use x="2244.935547" xlink:href="#DejaVuSans-76"/>
     <use x="2300.648438" xlink:href="#DejaVuSans-105"/>
     <use x="2328.431641" xlink:href="#DejaVuSans-110"/>
     <use x="2391.810547" xlink:href="#DejaVuSans-101"/>
     <use x="2453.333984" xlink:href="#DejaVuSans-115"/>
    </g>
   </g>
   <g id="legend_1">
    <g id="patch_7">
     <path d="M 77.179375 139.91225 
L 233.679688 139.91225 
Q 236.479688 139.91225 236.479688 137.11225 
L 236.479688 35.765375 
Q 236.479688 32.965375 233.679688 32.965375 
L 77.179375 32.965375 
Q 74.379375 32.965375 74.379375 35.765375 
L 74.379375 137.11225 
Q 74.379375 139.91225 77.179375 139.91225 
z
" style="fill:#ffffff;opacity:0.8;stroke:#cccccc;stroke-linejoin:miter;"/>
    </g>
    <g id="line2d_23">
     <path d="M 79.979375 44.303187 
L 107.979375 44.303187 
" style="fill:none;stroke:#bfbf00;stroke-dasharray:5.55,2.4;stroke-dashoffset:0;stroke-width:1.5;"/>
    </g>
    <g id="line2d_24"/>
    <g id="text_17">
     <!-- Avg. Support -->
     <defs>
      <path d="M 34.1875 63.1875 
L 20.796875 26.90625 
L 47.609375 26.90625 
z
M 28.609375 72.90625 
L 39.796875 72.90625 
L 67.578125 0 
L 57.328125 0 
L 50.6875 18.703125 
L 17.828125 18.703125 
L 11.1875 0 
L 0.78125 0 
z
" id="DejaVuSans-65"/>
      <path d="M 2.984375 54.6875 
L 12.5 54.6875 
L 29.59375 8.796875 
L 46.6875 54.6875 
L 56.203125 54.6875 
L 35.6875 0 
L 23.484375 0 
z
" id="DejaVuSans-118"/>
      <path d="M 10.6875 12.40625 
L 21 12.40625 
L 21 0 
L 10.6875 0 
z
" id="DejaVuSans-46"/>
     </defs>
     <g transform="translate(119.179375 49.203187)scale(0.14 -0.14)">
      <use xlink:href="#DejaVuSans-65"/>
      <use x="68.330078" xlink:href="#DejaVuSans-118"/>
      <use x="127.509766" xlink:href="#DejaVuSans-103"/>
      <use x="190.986328" xlink:href="#DejaVuSans-46"/>
      <use x="222.773438" xlink:href="#DejaVuSans-32"/>
      <use x="254.560547" xlink:href="#DejaVuSans-83"/>
      <use x="318.037109" xlink:href="#DejaVuSans-117"/>
      <use x="381.416016" xlink:href="#DejaVuSans-112"/>
      <use x="444.892578" xlink:href="#DejaVuSans-112"/>
      <use x="508.369141" xlink:href="#DejaVuSans-111"/>
      <use x="569.550781" xlink:href="#DejaVuSans-114"/>
      <use x="610.664062" xlink:href="#DejaVuSans-116"/>
     </g>
    </g>
    <g id="line2d_25">
     <path d="M 79.979375 64.852562 
L 107.979375 64.852562 
" style="fill:none;stroke:#0000ff;stroke-dasharray:5.55,2.4;stroke-dashoffset:0;stroke-width:1.5;"/>
    </g>
    <g id="line2d_26"/>
    <g id="text_18">
     <!-- Avg. Resistance -->
     <g transform="translate(119.179375 69.752562)scale(0.14 -0.14)">
      <use xlink:href="#DejaVuSans-65"/>
      <use x="68.330078" xlink:href="#DejaVuSans-118"/>
      <use x="127.509766" xlink:href="#DejaVuSans-103"/>
      <use x="190.986328" xlink:href="#DejaVuSans-46"/>
      <use x="222.773438" xlink:href="#DejaVuSans-32"/>
      <use x="254.560547" xlink:href="#DejaVuSans-82"/>
      <use x="323.980469" xlink:href="#DejaVuSans-101"/>
      <use x="385.503906" xlink:href="#DejaVuSans-115"/>
      <use x="437.603516" xlink:href="#DejaVuSans-105"/>
      <use x="465.386719" xlink:href="#DejaVuSans-115"/>
      <use x="517.486328" xlink:href="#DejaVuSans-116"/>
      <use x="556.695312" xlink:href="#DejaVuSans-97"/>
      <use x="617.974609" xlink:href="#DejaVuSans-110"/>
      <use x="681.353516" xlink:href="#DejaVuSans-99"/>
      <use x="736.333984" xlink:href="#DejaVuSans-101"/>
     </g>
    </g>
    <g id="line2d_27">
     <path d="M 79.979375 85.401937 
L 107.979375 85.401937 
" style="fill:none;stroke:#000000;stroke-dasharray:5.55,2.4;stroke-dashoffset:0;stroke-width:1.5;"/>
    </g>
    <g id="line2d_28"/>
    <g id="text_19">
     <!-- Close Price -->
     <g transform="translate(119.179375 90.301937)scale(0.14 -0.14)">
      <use xlink:href="#DejaVuSans-67"/>
      <use x="69.824219" xlink:href="#DejaVuSans-108"/>
      <use x="97.607422" xlink:href="#DejaVuSans-111"/>
      <use x="158.789062" xlink:href="#DejaVuSans-115"/>
      <use x="210.888672" xlink:href="#DejaVuSans-101"/>
      <use x="272.412109" xlink:href="#DejaVuSans-32"/>
      <use x="304.199219" xlink:href="#DejaVuSans-80"/>
      <use x="364.486328" xlink:href="#DejaVuSans-114"/>
      <use x="405.599609" xlink:href="#DejaVuSans-105"/>
      <use x="433.382812" xlink:href="#DejaVuSans-99"/>
      <use x="488.363281" xlink:href="#DejaVuSans-101"/>
     </g>
    </g>
    <g id="line2d_29">
     <path d="M 79.979375 105.951312 
L 107.979375 105.951312 
" style="fill:none;stroke:#008000;stroke-dasharray:5.55,2.4;stroke-dashoffset:0;stroke-width:1.5;"/>
    </g>
    <g id="line2d_30"/>
    <g id="text_20">
     <!-- Support -->
     <g transform="translate(119.179375 110.851312)scale(0.14 -0.14)">
      <use xlink:href="#DejaVuSans-83"/>
      <use x="63.476562" xlink:href="#DejaVuSans-117"/>
      <use x="126.855469" xlink:href="#DejaVuSans-112"/>
      <use x="190.332031" xlink:href="#DejaVuSans-112"/>
      <use x="253.808594" xlink:href="#DejaVuSans-111"/>
      <use x="314.990234" xlink:href="#DejaVuSans-114"/>
      <use x="356.103516" xlink:href="#DejaVuSans-116"/>
     </g>
    </g>
    <g id="line2d_31">
     <path d="M 79.979375 126.500687 
L 107.979375 126.500687 
" style="fill:none;stroke:#ff0000;stroke-dasharray:5.55,2.4;stroke-dashoffset:0;stroke-width:1.5;"/>
    </g>
    <g id="line2d_32"/>
    <g id="text_21">
     <!-- Resistance -->
     <g transform="translate(119.179375 131.400687)scale(0.14 -0.14)">
      <use xlink:href="#DejaVuSans-82"/>
      <use x="69.419922" xlink:href="#DejaVuSans-101"/>
      <use x="130.943359" xlink:href="#DejaVuSans-115"/>
      <use x="183.042969" xlink:href="#DejaVuSans-105"/>
      <use x="210.826172" xlink:href="#DejaVuSans-115"/>
      <use x="262.925781" xlink:href="#DejaVuSans-116"/>
      <use x="302.134766" xlink:href="#DejaVuSans-97"/>
      <use x="363.414062" xlink:href="#DejaVuSans-110"/>
      <use x="426.792969" xlink:href="#DejaVuSans-99"/>
      <use x="481.773438" xlink:href="#DejaVuSans-101"/>
     </g>
    </g>
   </g>
  </g>
 </g>
 <defs>
  <clipPath id="p30ba2676f4">
   <rect height="476.771484" width="501.695479" x="67.379375" y="25.965375"/>
  </clipPath>
 </defs>
</svg>
